<svg id="visual" viewBox="0 0 960 540" width="960" height="540" xmlns="http://www.w3.org/2000/svg" xmlns:xlink="http://www.w3.org/1999/xlink" version="1.1"><rect x="0" y="0" width="960" height="540" fill="#002233"></rect><path d="M0 362L22.8 365.3C45.7 368.7 91.3 375.3 137 370.8C182.7 366.3 228.3 350.7 274 337C319.7 323.3 365.3 311.7 411.2 318.2C457 324.7 503 349.3 548.8 369.8C594.7 390.3 640.3 406.7 686 399.2C731.7 391.7 777.3 360.3 823 355.8C868.7 351.3 914.3 373.7 937.2 384.8L960 396L960 541L937.2 541C914.3 541 868.7 541 823 541C777.3 541 731.7 541 686 541C640.3 541 594.7 541 548.8 541C503 541 457 541 411.2 541C365.3 541 319.7 541 274 541C228.3 541 182.7 541 137 541C91.3 541 45.7 541 22.8 541L0 541Z" fill="#0066FF" stroke-linecap="round" stroke-linejoin="miter"></path></svg>